solid CATIA STL
  facet normal  0.000000e+000  0.000000e+000  9.999999e-001
    outer loop
      vertex -1.136868e-016 -7.071068e-001  1.000000e+000
      vertex  7.071068e-001 -5.684342e-017  1.000000e+000
      vertex -7.071068e-001  0.000000e+000  1.000000e+000
    endloop
  endfacet
  facet normal  -0.000000e+000  0.000000e+000  9.999999e-001
    outer loop
      vertex -7.071068e-001  0.000000e+000  1.000000e+000
      vertex  7.071068e-001 -5.684342e-017  1.000000e+000
      vertex -1.136868e-016  7.071068e-001  1.000000e+000
    endloop
  endfacet
  facet normal  0.000000e+000  0.000000e+000 -9.999999e-001
    outer loop
      vertex -1.136868e-016 -7.071068e-001 -1.000000e+000
      vertex -7.071068e-001  0.000000e+000 -1.000000e+000
      vertex  7.071068e-001 -5.684342e-017 -1.000000e+000
    endloop
  endfacet
  facet normal  0.000000e+000  0.000000e+000 -9.999999e-001
    outer loop
      vertex  7.071068e-001 -5.684342e-017 -1.000000e+000
      vertex -7.071068e-001  0.000000e+000 -1.000000e+000
      vertex -1.136868e-016  7.071068e-001 -1.000000e+000
    endloop
  endfacet
  facet normal -7.071068e-001  7.071068e-001  0.000000e+000
    outer loop
      vertex -7.071068e-001  0.000000e+000 -1.000000e+000
      vertex -7.071068e-001  0.000000e+000  1.000000e+000
      vertex -1.136868e-016  7.071068e-001 -1.000000e+000
    endloop
  endfacet
  facet normal -7.071068e-001  7.071068e-001  0.000000e+000
    outer loop
      vertex -1.136868e-016  7.071068e-001 -1.000000e+000
      vertex -7.071068e-001  0.000000e+000  1.000000e+000
      vertex -1.136868e-016  7.071068e-001  1.000000e+000
    endloop
  endfacet
  facet normal  7.071068e-001  7.071068e-001  0.000000e+000
    outer loop
      vertex  7.071068e-001 -5.684342e-017 -1.000000e+000
      vertex -1.136868e-016  7.071068e-001 -1.000000e+000
      vertex  7.071068e-001 -5.684342e-017  1.000000e+000
    endloop
  endfacet
  facet normal  7.071068e-001  7.071068e-001  0.000000e+000
    outer loop
      vertex  7.071068e-001 -5.684342e-017  1.000000e+000
      vertex -1.136868e-016  7.071068e-001 -1.000000e+000
      vertex -1.136868e-016  7.071068e-001  1.000000e+000
    endloop
  endfacet
  facet normal  7.071068e-001 -7.071068e-001  0.000000e+000
    outer loop
      vertex  7.071068e-001 -5.684342e-017 -1.000000e+000
      vertex  7.071068e-001 -5.684342e-017  1.000000e+000
      vertex -1.136868e-016 -7.071068e-001 -1.000000e+000
    endloop
  endfacet
  facet normal  7.071068e-001 -7.071068e-001  0.000000e+000
    outer loop
      vertex -1.136868e-016 -7.071068e-001 -1.000000e+000
      vertex  7.071068e-001 -5.684342e-017  1.000000e+000
      vertex -1.136868e-016 -7.071068e-001  1.000000e+000
    endloop
  endfacet
  facet normal -7.071068e-001 -7.071068e-001  0.000000e+000
    outer loop
      vertex -7.071068e-001  0.000000e+000 -1.000000e+000
      vertex -1.136868e-016 -7.071068e-001 -1.000000e+000
      vertex -7.071068e-001  0.000000e+000  1.000000e+000
    endloop
  endfacet
  facet normal -7.071068e-001 -7.071068e-001  0.000000e+000
    outer loop
      vertex -7.071068e-001  0.000000e+000  1.000000e+000
      vertex -1.136868e-016 -7.071068e-001 -1.000000e+000
      vertex -1.136868e-016 -7.071068e-001  1.000000e+000
    endloop
  endfacet
endsolid CATIA STL
