solid CATIA STL
  facet normal  0.000000e+000  -0.000000e+000  1.000000e+000
    outer loop
      vertex -5.000000e-001 -5.684342e-017  1.000000e+000
      vertex  3.660254e-001 -5.000000e-001  1.000000e+000
      vertex  3.660254e-001  5.000000e-001  1.000000e+000
    endloop
  endfacet
  facet normal  0.000000e+000  0.000000e+000 -1.000000e+000
    outer loop
      vertex  3.660254e-001  5.000000e-001 -1.000000e+000
      vertex  3.660254e-001 -5.000000e-001 -1.000000e+000
      vertex -5.000000e-001 -5.684342e-017 -1.000000e+000
    endloop
  endfacet
  facet normal -5.000001e-001  8.660254e-001  0.000000e+000
    outer loop
      vertex -5.000000e-001 -5.684342e-017 -1.000000e+000
      vertex -5.000000e-001 -5.684342e-017  1.000000e+000
      vertex  3.660254e-001  5.000000e-001 -1.000000e+000
    endloop
  endfacet
  facet normal -5.000001e-001  8.660254e-001  0.000000e+000
    outer loop
      vertex  3.660254e-001  5.000000e-001 -1.000000e+000
      vertex -5.000000e-001 -5.684342e-017  1.000000e+000
      vertex  3.660254e-001  5.000000e-001  1.000000e+000
    endloop
  endfacet
  facet normal  1.000000e+000  0.000000e+000  0.000000e+000
    outer loop
      vertex  3.660254e-001  5.000000e-001 -1.000000e+000
      vertex  3.660254e-001  5.000000e-001  1.000000e+000
      vertex  3.660254e-001 -5.000000e-001 -1.000000e+000
    endloop
  endfacet
  facet normal  1.000000e+000  0.000000e+000  0.000000e+000
    outer loop
      vertex  3.660254e-001 -5.000000e-001 -1.000000e+000
      vertex  3.660254e-001  5.000000e-001  1.000000e+000
      vertex  3.660254e-001 -5.000000e-001  1.000000e+000
    endloop
  endfacet
  facet normal -5.000001e-001 -8.660254e-001  0.000000e+000
    outer loop
      vertex -5.000000e-001 -5.684342e-017 -1.000000e+000
      vertex  3.660254e-001 -5.000000e-001 -1.000000e+000
      vertex -5.000000e-001 -5.684342e-017  1.000000e+000
    endloop
  endfacet
  facet normal -5.000001e-001 -8.660254e-001  0.000000e+000
    outer loop
      vertex -5.000000e-001 -5.684342e-017  1.000000e+000
      vertex  3.660254e-001 -5.000000e-001 -1.000000e+000
      vertex  3.660254e-001 -5.000000e-001  1.000000e+000
    endloop
  endfacet
endsolid CATIA STL
